<?xml version="1.0" encoding="utf-8"?>
<!-- Generator: Adobe Illustrator 25.2.1, SVG Export Plug-In . SVG Version: 6.00 Build 0)  -->
<svg version="1.1" id="Camada_1" xmlns="http://www.w3.org/2000/svg" xmlns:xlink="http://www.w3.org/1999/xlink" x="0px" y="0px"
	 viewBox="0 0 179.24 200" style="enable-background:new 0 0 179.24 200;" xml:space="preserve">
<style type="text/css">
	.st0{fill:#FF662D;}
	.st1{fill:#222222;}
	.st2{fill:#00B3CD;}
	.st3{fill:#FFFFFF;}
	.st4{fill:#0A4486;}
</style>
<g>
	<path class="st2" d="M163.73,81.66L37.45,8.75C23.33,0.6,5.68,10.79,5.68,27.09l0,145.81c0,16.3,17.65,26.49,31.77,18.34
		l126.28-72.91C177.85,110.19,177.85,89.81,163.73,81.66z M132.08,112.23l-7.74,4.47c-4.42,2.56-9.7,2.55-14.12,0
		c-4.42-2.55-7.06-7.13-7.06-12.23v-8.94c0-5.1,2.64-9.67,7.06-12.23c2.21-1.28,4.64-1.91,7.06-1.91c2.42,0,4.85,0.64,7.06,1.91
		l7.74,4.47c4.42,2.55,7.06,7.12,7.06,12.23S136.5,109.68,132.08,112.23z M76.59,57.9c2.42,0,4.85,0.64,7.06,1.92l19.51,11.26
		c0,0,0,0,0,0c-8.84,5.11-14.12,14.25-14.12,24.46v8.94c0,10.21,5.28,19.35,14.12,24.46l-19.51,11.26c-4.42,2.55-9.7,2.55-14.12,0
		c-4.42-2.55-7.06-7.13-7.06-12.23V72.04c0-5.11,2.64-9.68,7.06-12.23C71.74,58.53,74.17,57.9,76.59,57.9z M53.87,163.06
		c-14.12,8.15-31.77-2.04-31.77-18.34l0-89.44c0-16.3,17.65-26.49,31.77-18.34l14.23,8.21c-1.92,0.62-3.81,1.39-5.62,2.43
		c-8.84,5.11-14.12,14.25-14.12,24.46v55.92c0,10.21,5.28,19.35,14.12,24.46c1.81,1.04,3.7,1.82,5.62,2.43L53.87,163.06z"/>
</g>
</svg>
