<?xml version="1.0" encoding="utf-8"?>
<!-- Generator: Adobe Illustrator 25.2.1, SVG Export Plug-In . SVG Version: 6.00 Build 0)  -->
<svg version="1.1" id="Camada_1" xmlns="http://www.w3.org/2000/svg" xmlns:xlink="http://www.w3.org/1999/xlink" x="0px" y="0px"
	 viewBox="0 0 314.62 72.34" style="enable-background:new 0 0 314.62 72.34;" xml:space="preserve">
<style type="text/css">
	.st0{fill:#FF662D;}
	.st1{fill:#FFFFFF;}
	.st2{fill:#00B3CD;}
	.st3{fill:#222222;}
	.st4{fill:#0A4486;}
</style>
<g>
	<path class="st1" d="M70.62,19.23c0-7.67,5.65-12.78,13.85-12.78c2.2,0,4.9,0.28,7.71,1.49v6.43c-2.84-1.24-4.86-1.53-7-1.53
		c-4.55,0-7.03,2.77-7.03,6.32c0,3.59,2.45,6.39,6.89,6.39c2.88,0,5.01-0.57,7.24-1.6v6.29c-2.73,1.46-5.65,1.78-7.81,1.78
		C76.26,32.02,70.62,26.9,70.62,19.23z"/>
	<path class="st1" d="M95.66,20.76V6.8h7.46v14.53c0,2.41,0.71,4.55,4.01,4.55c3.34,0,4.01-2.13,4.01-4.55V6.8h7.28v13.96
		c0,5.47-1.42,11.26-11.29,11.26C97.23,32.02,95.66,26.23,95.66,20.76z"/>
	<path class="st1" d="M137.72,31.66l-3.41-6.14h-4.23v6.14h-7.46V6.8h11.19c4.55,0,11.65,1.24,11.65,9.23
		c0,3.55-1.71,6.22-4.12,7.81l4.62,7.81H137.72z M130.08,19.69h2.95c2.34,0,4.76-0.67,4.76-3.48c0-2.63-2.41-3.27-4.76-3.27h-2.95
		V19.69z"/>
	<path class="st1" d="M147.92,30.46v-5.54c2.2,0.82,5.01,1.35,7.88,1.35c2.81,0,4.4-0.53,4.4-2.02c0-1.49-1.56-1.92-3.13-2.27
		c-3.98-0.89-9.02-1.67-9.02-7.88c0-5.9,5.26-7.64,10.69-7.64c2.84,0,5.47,0.67,7.24,1.46v5.5c-2.31-0.75-4.58-1.35-7.07-1.35
		c-1.92,0-3.27,0.46-3.27,1.7c0,1.17,1.28,1.56,2.91,1.95c3.91,0.92,9.23,2.13,9.23,8.17c0,6.22-5.22,8.13-11.26,8.13
		C152.93,32.02,149.73,31.24,147.92,30.46z"/>
	<path class="st1" d="M169.33,19.23c0-7.42,5.26-12.78,13.78-12.78c8.52,0,13.78,5.36,13.78,12.78s-5.26,12.79-13.78,12.79
		C174.58,32.02,169.33,26.66,169.33,19.23z M189.21,19.23c0-3.41-2.38-6.04-6.11-6.04c-3.76,0-6.14,2.63-6.14,6.04s2.38,6,6.14,6
		C186.84,25.24,189.21,22.64,189.21,19.23z"/>
	<path class="st1" d="M208.4,31.66V6.8h8.56c7.67,0,15.34,2.91,15.34,12.4c0,9.45-7.6,12.47-15.34,12.47H208.4z M215.86,25.31h1.74
		c3.44,0,7.03-1.35,7.03-6.14c0-4.79-3.59-6-7.03-6h-1.74V25.31z"/>
	<path class="st1" d="M235.48,31.66V6.8h20.49v6.11h-13.03v3.37h11.01v5.68h-11.01v3.59h13.03v6.11H235.48z"/>
	<path class="st1" d="M70.62,53.11c0-7.67,5.65-12.78,13.85-12.78c2.2,0,4.9,0.28,7.71,1.49v6.43c-2.84-1.24-4.86-1.53-7-1.53
		c-4.55,0-7.03,2.77-7.03,6.32c0,3.59,2.45,6.39,6.89,6.39c2.88,0,5.01-0.57,7.24-1.6v6.29c-2.73,1.46-5.65,1.78-7.81,1.78
		C76.26,65.89,70.62,60.78,70.62,53.11z"/>
	<path class="st1" d="M94.43,53.11c0-7.42,5.26-12.78,13.78-12.78c8.52,0,13.78,5.36,13.78,12.78s-5.26,12.78-13.78,12.78
		C99.68,65.89,94.43,60.53,94.43,53.11z M114.31,53.11c0-3.41-2.38-6.04-6.11-6.04c-3.76,0-6.14,2.63-6.14,6.04
		c0,3.41,2.38,6,6.14,6C111.93,59.11,114.31,56.52,114.31,53.11z"/>
	<path class="st1" d="M142.88,40.68h7.46v24.86h-9.91l-7.81-15.09v15.09h-7.46V40.68l9.91-0.04l7.81,14.88V40.68z"/>
	<path class="st1" d="M181.13,40.68l-10.51,24.86h-7.64l-10.26-24.86h8.35l6.07,16.02h0.14l6.32-16.02H181.13z"/>
	<path class="st1" d="M183.5,65.54V40.68h20.49v6.11h-13.03v3.37h11.01v5.68h-11.01v3.59h13.03v6.11H183.5z"/>
	<path class="st1" d="M223.29,65.54l-3.41-6.14h-4.23v6.14h-7.46V40.68h11.19c4.55,0,11.65,1.24,11.65,9.23
		c0,3.55-1.71,6.22-4.12,7.81l4.62,7.81H223.29z M215.65,53.57h2.95c2.34,0,4.76-0.67,4.76-3.48c0-2.63-2.41-3.27-4.76-3.27h-2.95
		V53.57z"/>
	<path class="st1" d="M233.5,64.33v-5.54c2.2,0.82,5.01,1.35,7.88,1.35c2.81,0,4.4-0.53,4.4-2.02c0-1.49-1.56-1.92-3.13-2.27
		c-3.98-0.89-9.02-1.67-9.02-7.88c0-5.9,5.26-7.64,10.69-7.64c2.84,0,5.47,0.67,7.24,1.46v5.51c-2.31-0.75-4.58-1.35-7.07-1.35
		c-1.92,0-3.27,0.46-3.27,1.71c0,1.17,1.28,1.56,2.91,1.95c3.91,0.92,9.23,2.13,9.23,8.17c0,6.22-5.22,8.13-11.26,8.13
		C238.51,65.89,235.31,65.11,233.5,64.33z"/>
	<path class="st1" d="M272.55,65.54l-1.24-4.47h-8.56l-1.31,4.47h-7.42l8.2-24.86h10.58l7.96,24.86H272.55z M264.74,38.54
		c-1.1,0-2.2,0.43-3.27,1.49V36.8c1.1-0.89,2.17-1.31,3.34-1.31c2.03,0,3.66,1.74,5.54,1.74c1.1,0,2.2-0.6,3.27-2.13v3.45
		c-1.1,1.17-2.17,1.6-3.34,1.6C268.22,40.14,266.62,38.54,264.74,38.54z M264.45,55.38h5.26l-2.49-8.95h-0.14L264.45,55.38z"/>
	<path class="st1" d="M281.28,53.11c0-7.42,5.26-12.78,13.78-12.78c8.52,0,13.78,5.36,13.78,12.78s-5.26,12.78-13.78,12.78
		C286.54,65.89,281.28,60.53,281.28,53.11z M301.17,53.11c0-3.41-2.38-6.04-6.11-6.04c-3.76,0-6.14,2.63-6.14,6.04
		c0,3.41,2.38,6,6.14,6C298.79,59.11,301.17,56.52,301.17,53.11z"/>
</g>
<path class="st2" d="M55.69,30.38L15.81,7.35C11.35,4.78,5.78,8,5.78,13.15l0,46.05c0,5.15,5.57,8.37,10.03,5.79l39.88-23.02
	C60.15,39.39,60.15,32.95,55.69,30.38z M45.7,40.03l-2.44,1.41c-1.4,0.81-3.06,0.81-4.46,0c-1.4-0.81-2.23-2.25-2.23-3.86v-2.82
	c0-1.61,0.83-3.05,2.23-3.86c0.7-0.4,1.46-0.6,2.23-0.6c0.77,0,1.53,0.2,2.23,0.6l2.44,1.41c1.4,0.81,2.23,2.25,2.23,3.86
	S47.09,39.22,45.7,40.03z M28.17,22.87c0.77,0,1.53,0.2,2.23,0.61l6.16,3.56c0,0,0,0,0,0c-2.79,1.61-4.46,4.5-4.46,7.72v2.82
	c0,3.22,1.67,6.11,4.46,7.72l-6.16,3.56c-1.4,0.81-3.06,0.8-4.46,0c-1.4-0.81-2.23-2.25-2.23-3.86V27.34c0-1.61,0.83-3.06,2.23-3.86
	C26.64,23.07,27.41,22.87,28.17,22.87z M21,56.08c-4.46,2.57-10.03-0.64-10.03-5.79l0-28.24c0-5.15,5.57-8.37,10.03-5.79l4.49,2.59
	c-0.61,0.19-1.2,0.44-1.77,0.77c-2.79,1.61-4.46,4.5-4.46,7.72V45c0,3.22,1.67,6.11,4.46,7.72c0.57,0.33,1.17,0.57,1.78,0.77
	L21,56.08z"/>
</svg>
